<?xml version="1.0" standalone="no"?>
<!DOCTYPE svg PUBLIC "-//W3C//DTD SVG 20010904//EN"
 "http://www.w3.org/TR/2001/REC-SVG-20010904/DTD/svg10.dtd">
<svg version="1.0" xmlns="http://www.w3.org/2000/svg"
 width="367.000000pt" height="367.000000pt" viewBox="0 0 367.000000 367.000000"
 preserveAspectRatio="xMidYMid meet">
<metadata>
Created by potrace 1.11, written by Peter Selinger 2001-2013
</metadata>
<g transform="translate(0.000000,367.000000) scale(0.100000,-0.100000)"
fill="#000000" stroke="none">
<path d="M907 2752 c-499 -499 -907 -912 -907 -917 0 -16 1814 -1825 1830
-1825 16 0 1830 1809 1830 1825 0 16 -1814 1825 -1830 1825 -8 0 -423 -408
-923 -908z m1107 -212 c154 -39 259 -120 316 -243 16 -34 32 -88 36 -119 l7
-58 -150 0 -150 0 -5 45 c-14 118 -148 187 -302 155 -45 -9 -69 -21 -99 -50
-37 -34 -41 -42 -45 -97 -4 -55 -2 -62 26 -94 41 -47 105 -80 247 -127 154
-51 219 -80 294 -132 126 -85 188 -209 179 -356 -15 -227 -206 -363 -511 -364
-313 0 -556 170 -574 404 l-6 66 146 0 145 0 6 -30 c3 -16 9 -44 12 -61 9 -45
80 -114 134 -130 25 -7 83 -13 130 -13 148 0 220 51 220 159 0 100 -48 139
-269 217 -271 96 -381 169 -443 296 -30 60 -33 75 -33 157 0 76 4 99 26 145
52 111 180 202 330 234 97 21 241 20 333 -4z"/>
</g>
</svg>
